<svg width="60" height="60" viewBox="0 0 60 60" fill="none" xmlns="http://www.w3.org/2000/svg">
<path d="M58 14.7485V34.9977C57.9964 38.6416 56.6666 42.1351 54.3024 44.7117C51.9383 47.2883 48.7328 48.7376 45.3894 48.7415H37.7379L31.3433 58.9967C31.1506 59.3059 30.8914 59.559 30.5883 59.7339C30.2853 59.9089 29.9475 60.0004 29.6046 60.0004C29.2616 60.0004 28.9239 59.9089 28.6208 59.7339C28.3177 59.559 28.0586 59.3059 27.8659 58.9967L26.8223 57.3222C26.8066 57.297 26.7887 57.2707 26.774 57.2444L21.4723 48.7415H13.6106C10.2672 48.7376 7.06173 47.2883 4.69756 44.7117C2.33339 42.1351 1.00362 38.6416 1 34.9977V14.7485C1.0043 11.1246 2.3205 7.64894 4.66265 5.07659C7.0048 2.50425 10.1837 1.04306 13.5087 1.01048C13.5423 1.01048 13.5759 0.999023 13.6138 0.999023H43.2876C43.3223 0.999023 43.3549 0.999023 43.3927 0.999023H45.3894C48.7337 1.00297 51.94 2.45302 54.3043 5.03087C56.6686 7.60871 57.9978 11.1037 58 14.7485ZM24.3233 45.1624L28.5542 51.9496L32.784 45.1624C32.9767 44.853 33.2359 44.5997 33.5391 44.4246C33.8422 44.2495 34.1801 44.158 34.5232 44.158H43.2876C45.5165 44.1552 47.6535 43.189 49.2295 41.4713C50.8056 39.7536 51.6922 37.4247 51.6947 34.9954V14.7428C51.6916 12.3341 50.819 10.0234 49.2656 8.31006C47.7122 6.59669 45.6026 5.6182 43.3927 5.58601H13.6106C11.3817 5.58874 9.24477 6.55495 7.66868 8.27267C6.09259 9.99039 5.20604 12.3193 5.20354 14.7485V34.9977C5.20546 37.4208 6.08721 39.7446 7.65616 41.4614C9.22511 43.1782 11.3537 44.1485 13.577 44.1603C13.5886 44.1603 13.5991 44.1603 13.6106 44.1603H20.4834C20.5013 44.1603 20.517 44.1603 20.5339 44.1603H22.5852C22.9279 44.1602 23.2655 44.2515 23.5684 44.4261C23.8714 44.6008 24.1306 44.8536 24.3233 45.1624Z" fill="#C76E6E"/>
<path d="M26.0138 29.4948C25.781 23.52 24.3438 18.554 24.3438 15.7991C24.3438 13.122 25.237 10.6006 28.1114 10.6006C30.5978 10.6006 34.7541 14.9071 34.7541 19.0195C34.7541 21.1922 34.2886 23.287 33.8225 25.6927C33.3948 28.0595 32.9282 30.6982 32.9282 33.9948C33.4723 34.7711 33.8225 35.702 33.8225 37.0601C33.8225 38.7284 32.6949 39.9307 31.0249 39.9307C28.5386 39.9307 25.1975 36.7881 25.0805 33.4131C25.0426 32.2103 25.6635 30.9696 26.5573 30.3095L26.0138 29.4948ZM29.5492 28.8353C29.7435 23.4422 31.2198 18.088 31.2198 15.8385C31.2198 13.5496 30.3655 11.299 28.112 11.299C25.8589 11.299 25.0437 13.5496 25.0437 15.8385C25.0437 18.0885 26.4809 23.4427 26.7137 28.8353H29.5492ZM25.8584 33.2185C25.8584 34.616 26.8691 35.8178 28.0725 35.8178C29.2769 35.8178 30.326 34.616 30.326 33.2185C30.326 31.7448 29.2769 30.6198 28.0725 30.6198C26.8691 30.6198 25.8584 31.7448 25.8584 33.2185Z" fill="#C76E6E"/>
</svg>
